<svg xmlns="http://www.w3.org/2000/svg" xmlns:xlink="http://www.w3.org/1999/xlink" viewBox="0 0 1366 138"><defs><style>.cls-1{fill:url(#Degradado_sin_nombre_4);}.cls-2{fill:#092f2e;}.cls-3{fill:#ff9e1b;}.cls-4{fill:#ff9f1c;}</style><linearGradient id="Degradado_sin_nombre_4" x1="553.73" y1="69" x2="1366" y2="69" gradientUnits="userSpaceOnUse"><stop offset="0" stop-color="#092f2e"/><stop offset="1" stop-color="#ff9e1b"/></linearGradient></defs><g id="Capa_2" data-name="Capa 2"><g id="Capa_1-2" data-name="Capa 1"><polygon class="cls-1" points="1366 0 1366 138 579.8 138 683 69 553.73 0 1366 0"/><polygon class="cls-2" points="786 69 667.24 138 0 138 0 0 637.24 0 786 69"/><path class="cls-3" d="M175.28,58.38a58.24,58.24,0,0,1,3.81,22.3c-.18,5.56-1.05,11.06-3.57,16-1.93,3.75-4,7.55-7.49,10.42-2.64,2.16-5.1,4.45-8.26,5.85a21.92,21.92,0,0,1-5.67,1.64c-2.29.82-4.57.18-6.91.41a2.87,2.87,0,0,1-1.7-.29,36.6,36.6,0,0,1-13.28-4.92c-4.22-2.69-8.49-5.33-12-9-1.76-1.82-2-1.82-3.75.23a42,42,0,0,1-4.1,4.56,72.29,72.29,0,0,1-11.76,8.73,27.67,27.67,0,0,1-16.68,3.92c-3.46-.3-6.85-1.06-9.66-3.63-1.52-1.41-3.51-2.28-5-3.92a33.63,33.63,0,0,1-7.9-15.1c-1.75-7.61-1.64-15.28-.76-23a85.34,85.34,0,0,1,7.73-26.4c2.16-4.62,5-8.78,7.72-13.11,1.94-3.1,4.8-5.32,7.15-8,4.39-5.2,13.22-6.78,18.84-3.62,2.58,1.46,4.86,3.16,4.92,6.67,0,2.34-.29,4.68-1.93,6.32-2.81,2.75-4,6.38-6.15,9.48-2.63,3.92-4.21,8.37-6.26,12.64a58.89,58.89,0,0,0-5.85,21.84c-.24,4,.41,7.78,3.51,10.82a3,3,0,0,0,4,.47,32.24,32.24,0,0,0,9-8.19,48.6,48.6,0,0,0,6-11.47c.88-2.23,2.63-3.75,4.27-5.33,3.87-3.63,8.37-4.45,12.12-1.93a15.6,15.6,0,0,1,5.73,6.85,30.88,30.88,0,0,0,9.49,12.87,8.57,8.57,0,0,0,8.37,1.76c3.45-.94,4-3.75,4.39-6.56a19.41,19.41,0,0,0-1.53-9.3,31,31,0,0,0-3.27-6.38c-2.7-4.16-3.16-8.84-.3-12.88,3.11-4.39,7.09-7.14,13.23-5.5,5.15,1.35,8.66,4.74,11,9.48.58,1.17,1.11,2.34,1.75,3.69C175.05,57.33,174.87,57.91,175.28,58.38Z"/><path class="cls-4" d="M137.71,28.47c1.93-7.2,10.94-9.66,16.62-8.6,3.63.64,6.56,2.34,8.31,5.62,2.11,3.92.82,7.31-1.87,10.47-5,6-13.05,6.09-18.2,3.69A9.49,9.49,0,0,1,137.71,28.47Z"/></g></g></svg>