<?xml version="1.0" encoding="utf-8"?>
<!-- Generator: Adobe Illustrator 25.4.1, SVG Export Plug-In . SVG Version: 6.00 Build 0)  -->
<svg version="1.1" id="Layer_1" xmlns="http://www.w3.org/2000/svg" xmlns:xlink="http://www.w3.org/1999/xlink" x="0px" y="0px"
	 viewBox="0 0 1366 988" style="enable-background:new 0 0 1366 988;" xml:space="preserve">
<style type="text/css">
	.st0{fill:#E2871A;}
	.st1{fill:#FF9E19;}
	.st2{fill:#EAEAE9;}
	.st3{fill:#FFFFFF;}
	.st4{fill:#FF9E1B;}
	.st5{fill:#FF9F1C;}
	.st6{fill:#FFE2BA;}
	.st7{fill:#FFDFB4;}
</style>
<rect class="st0" width="1366" height="988"/>
<rect y="487.3" class="st1" width="1366" height="500.7"/>
<path class="st2" d="M516.4,589.1c0.1-1.4-0.7-2.3-1.3-3.3c-12.2-20.7-20.3-43-24.2-66.7c-3.1-18.6-3.7-37.4-1-56.1
	c9.9-69.3,46.4-119.7,108.6-151.5c16.5-8.4,34.1-13.7,52.3-16.7c17.8-3,35.8-3.8,53.8-1.5c67.5,8.9,117.9,43.3,151,102.8
	c0.3,0.6,0.7,1.1,1.2,1.8c4.3,9.6,8.6,18.9,11.7,28.7c4.4,14,7.4,28.2,8.7,42.8c3.5,39.3-4.3,76.1-22.9,110.7
	c-6.6,12.2-14.6,23.5-23.7,34.1c-18.3,21.1-40,37.6-65.2,49.4c-16.6,7.7-34,12.9-52.1,15.9c-14.4,2.3-28.9,2.8-43.4,2
	c-21.9-1.3-43-6.6-63.3-15.3c-18.6-8-35.4-18.6-50.7-31.8c-14.5-12.5-26.9-26.8-37.2-42.9C518,590.7,517.2,590,516.4,589.1z"/>
<path class="st3" d="M652.2,665.5c-17.7-3.3-34.5-8.6-50.3-16.6c-14.8-7.5-28.4-16.9-40.8-28.1c-17.2-15.5-30.8-33.8-40.9-54.5
	c-8.6-17.5-14.1-36-16.7-55.4c-1.6-12.1-1.9-24.1-1.2-36.1c1.3-21.1,6.5-41.5,15.1-60.9c8.1-18.1,18.8-34.3,32.2-49
	c13-14.3,28-25.9,44.7-35.5c19.2-11,39.8-17.9,61.5-21.3c14.4-2.2,28.8-2.3,43.4-1.1c18.5,1.5,36.1,6.1,53.2,13.1
	c16.7,6.8,31.7,16.2,45.7,27.5c13.6,11,25.1,23.9,34.9,38.3c10.6,15.5,18.3,32.4,23.7,50.4c6.2,20.5,8.2,41.6,6.9,62.8
	c-1.2,20.9-6.4,41-14.7,60.3c-7.2,16.6-16.8,31.8-28.5,45.5c-13.9,16.4-30.5,29.7-49.2,40.2c-19.1,10.8-39.6,17.7-61.2,21.1
	c-14.2,2.2-28.6,2.5-43,1.2C662.2,666.8,657.4,666.1,652.2,665.5z"/>
<g>
	<path class="st4" d="M778.1,468.9c4.6,12.4,6.9,25,6.5,38.1c-0.3,9.5-1.8,18.9-6.1,27.3c-3.3,6.4-6.9,12.9-12.8,17.8
		c-4.5,3.7-8.7,7.6-14.1,10c-3,1.4-6.2,2.2-9.7,2.8c-3.9,1.4-7.8,0.3-11.8,0.7c-1.1,0-1.9,0.1-2.9-0.5c-8.3-1.5-15.9-4.1-22.7-8.4
		c-7.2-4.6-14.5-9.1-20.5-15.3c-3-3.1-3.5-3.1-6.4,0.4c-2.2,2.7-4.4,5.4-7,7.8c-6.2,5.6-12.8,10.6-20.1,14.9
		c-8.9,5.2-18.4,7.6-28.5,6.7c-5.9-0.5-11.7-1.8-16.5-6.2c-2.6-2.4-6-3.9-8.5-6.7c-6.7-7.5-11.2-15.9-13.5-25.8
		c-3-13-2.8-26.1-1.3-39.2c1.8-15.8,6.5-30.7,13.2-45.1c3.7-7.9,8.6-15,13.2-22.4c3.3-5.3,8.2-9.1,12.2-13.7
		c7.5-8.9,22.6-11.6,32.2-6.2c4.4,2.5,8.3,5.4,8.4,11.4c0,4-0.5,8-3.3,10.8c-4.8,4.7-6.9,10.9-10.5,16.2
		c-4.5,6.7-7.2,14.3-10.7,21.6c-5.6,11.8-9.2,24.2-10,37.3c-0.4,6.8,0.7,13.3,6,18.5c2.3,2.3,4.8,2.2,6.9,0.8
		c5.9-3.7,11-8.2,15.3-14c4.5-6.1,7.6-12.7,10.3-19.6c1.5-3.8,4.5-6.4,7.3-9.1c6.6-6.2,14.3-7.6,20.7-3.3c4.2,2.9,7.8,6.8,9.8,11.7
		c3.5,8.8,8.8,16,16.2,22c4.4,3.6,8.9,4.5,14.3,3c5.9-1.6,6.9-6.4,7.5-11.2c0.7-5.5-0.7-10.8-2.6-15.9c-1.4-3.8-3.3-7.4-5.6-10.9
		c-4.6-7.1-5.4-15.1-0.5-22c5.3-7.5,12.1-12.2,22.6-9.4c8.8,2.3,14.8,8.1,18.7,16.2c1,2,1.9,4,3,6.3
		C777.7,467.1,777.4,468.1,778.1,468.9z"/>
	<path class="st5" d="M713.9,417.8c3.3-12.3,18.7-16.5,28.4-14.7c6.2,1.1,11.2,4,14.2,9.6c3.6,6.7,1.4,12.5-3.2,17.9
		c-8.6,10.2-22.3,10.4-31.1,6.3C716.8,434.2,711.4,427.3,713.9,417.8z"/>
</g>
<path class="st6" d="M798.2,465c-1.2-0.1-1.8-0.9-1.6-2.4C798.1,462.5,798.1,463.6,798.2,465z"/>
<path class="st7" d="M739,581.4c0.4,0.3,0.4,0.6,0.5,1.1c-1.1,0.3-2.3,0.7-3.1-0.9C737.1,581.3,737.9,581.3,739,581.4z"/>
</svg>
