<?xml version="1.0" standalone="no"?>
<svg xmlns:xlink="http://www.w3.org/1999/xlink" id="wave" style="transform:rotate(0deg); transition: 0.3s" viewBox="0 0 1440 240" version="1.1" xmlns="http://www.w3.org/2000/svg"><defs><linearGradient id="sw-gradient-0" x1="0" x2="0" y1="1" y2="0"><stop stop-color="rgba(255, 159, 0, 1)" offset="0%"/><stop stop-color="rgba(3, 183, 75, 1)" offset="100%"/></linearGradient></defs><path style="transform:translate(0, 0px); opacity:1" fill="url(#sw-gradient-0)" d="M0,120L144,216L288,120L432,24L576,0L720,192L864,120L1008,0L1152,192L1296,216L1440,144L1584,216L1728,168L1872,144L2016,72L2160,72L2304,72L2448,192L2592,168L2736,192L2880,144L3024,24L3168,72L3312,192L3456,96L3456,240L3312,240L3168,240L3024,240L2880,240L2736,240L2592,240L2448,240L2304,240L2160,240L2016,240L1872,240L1728,240L1584,240L1440,240L1296,240L1152,240L1008,240L864,240L720,240L576,240L432,240L288,240L144,240L0,240Z"/><defs><linearGradient id="sw-gradient-1" x1="0" x2="0" y1="1" y2="0"><stop stop-color="rgba(243, 106, 62, 1)" offset="0%"/><stop stop-color="rgba(3, 183, 75, 1)" offset="100%"/></linearGradient></defs><path style="transform:translate(0, 50px); opacity:0.9" fill="url(#sw-gradient-1)" d="M0,192L144,96L288,24L432,48L576,144L720,96L864,216L1008,216L1152,0L1296,24L1440,144L1584,72L1728,72L1872,216L2016,216L2160,96L2304,96L2448,216L2592,48L2736,24L2880,48L3024,24L3168,24L3312,216L3456,144L3456,240L3312,240L3168,240L3024,240L2880,240L2736,240L2592,240L2448,240L2304,240L2160,240L2016,240L1872,240L1728,240L1584,240L1440,240L1296,240L1152,240L1008,240L864,240L720,240L576,240L432,240L288,240L144,240L0,240Z"/><defs><linearGradient id="sw-gradient-2" x1="0" x2="0" y1="1" y2="0"><stop stop-color="rgba(243, 106, 62, 1)" offset="0%"/><stop stop-color="rgba(255, 179, 11, 1)" offset="100%"/></linearGradient></defs><path style="transform:translate(0, 100px); opacity:0.8" fill="url(#sw-gradient-2)" d="M0,0L144,192L288,96L432,120L576,216L720,0L864,168L1008,216L1152,72L1296,72L1440,96L1584,120L1728,120L1872,0L2016,192L2160,216L2304,144L2448,72L2592,168L2736,24L2880,192L3024,0L3168,48L3312,168L3456,96L3456,240L3312,240L3168,240L3024,240L2880,240L2736,240L2592,240L2448,240L2304,240L2160,240L2016,240L1872,240L1728,240L1584,240L1440,240L1296,240L1152,240L1008,240L864,240L720,240L576,240L432,240L288,240L144,240L0,240Z"/></svg>