<?xml version="1.0" standalone="no"?>
<svg xmlns:xlink="http://www.w3.org/1999/xlink" id="wave" style="transform:rotate(0deg); transition: 0.3s" viewBox="0 0 1440 490" version="1.1" xmlns="http://www.w3.org/2000/svg"><defs><linearGradient id="sw-gradient-0" x1="0" x2="0" y1="1" y2="0"><stop stop-color="rgba(255, 159, 0, 1)" offset="0%"/><stop stop-color="rgba(3, 183, 75, 1)" offset="100%"/></linearGradient></defs><path style="transform:translate(0, 0px); opacity:1" fill="url(#sw-gradient-0)" d="M0,245L120,441L240,245L360,49L480,0L600,392L720,245L840,0L960,392L1080,441L1200,294L1320,441L1440,343L1560,294L1680,147L1800,147L1920,147L2040,392L2160,343L2280,392L2400,294L2520,49L2640,147L2760,392L2880,196L2880,490L2760,490L2640,490L2520,490L2400,490L2280,490L2160,490L2040,490L1920,490L1800,490L1680,490L1560,490L1440,490L1320,490L1200,490L1080,490L960,490L840,490L720,490L600,490L480,490L360,490L240,490L120,490L0,490Z"/><defs><linearGradient id="sw-gradient-1" x1="0" x2="0" y1="1" y2="0"><stop stop-color="rgba(243, 106, 62, 1)" offset="0%"/><stop stop-color="rgba(3, 183, 75, 1)" offset="100%"/></linearGradient></defs><path style="transform:translate(0, 50px); opacity:0.9" fill="url(#sw-gradient-1)" d="M0,392L120,196L240,49L360,98L480,294L600,196L720,441L840,441L960,0L1080,49L1200,294L1320,147L1440,147L1560,441L1680,441L1800,196L1920,196L2040,441L2160,98L2280,49L2400,98L2520,49L2640,49L2760,441L2880,294L2880,490L2760,490L2640,490L2520,490L2400,490L2280,490L2160,490L2040,490L1920,490L1800,490L1680,490L1560,490L1440,490L1320,490L1200,490L1080,490L960,490L840,490L720,490L600,490L480,490L360,490L240,490L120,490L0,490Z"/><defs><linearGradient id="sw-gradient-2" x1="0" x2="0" y1="1" y2="0"><stop stop-color="rgba(243, 106, 62, 1)" offset="0%"/><stop stop-color="rgba(255, 179, 11, 1)" offset="100%"/></linearGradient></defs><path style="transform:translate(0, 100px); opacity:0.8" fill="url(#sw-gradient-2)" d="M0,0L120,392L240,196L360,245L480,441L600,0L720,343L840,441L960,147L1080,147L1200,196L1320,245L1440,245L1560,0L1680,392L1800,441L1920,294L2040,147L2160,343L2280,49L2400,392L2520,0L2640,98L2760,343L2880,196L2880,490L2760,490L2640,490L2520,490L2400,490L2280,490L2160,490L2040,490L1920,490L1800,490L1680,490L1560,490L1440,490L1320,490L1200,490L1080,490L960,490L840,490L720,490L600,490L480,490L360,490L240,490L120,490L0,490Z"/></svg>